<svg width="16" height="16" viewBox="0 0 16 16" fill="none" xmlns="http://www.w3.org/2000/svg">
<g clip-path="url(#clip0_24_168)">
<path fill-rule="evenodd" clip-rule="evenodd" d="M9.83801 1.7473C10.4234 1.16188 11.2174 0.832993 12.0453 0.832993C12.8733 0.832993 13.6673 1.16188 14.2527 1.7473C14.8381 2.33272 15.167 3.12672 15.167 3.95463C15.167 4.78254 14.8381 5.57655 14.2527 6.16197L7.92868 12.486C7.56734 12.8473 7.35534 13.0593 7.11801 13.244C6.8389 13.4626 6.5389 13.6482 6.21801 13.8006C5.94734 13.9293 5.66201 14.0246 5.17801 14.186L2.95668 14.926L2.42201 15.1046C2.20936 15.1756 1.98114 15.186 1.76295 15.1345C1.54475 15.0831 1.3452 14.9718 1.18668 14.8133C1.02815 14.6548 0.916928 14.4552 0.86547 14.237C0.814012 14.0188 0.824357 13.7906 0.895345 13.578L1.81401 10.8226C1.97534 10.338 2.07068 10.0526 2.19934 9.7813C2.35223 9.4613 2.53779 9.1613 2.75601 8.8813C2.94001 8.6453 3.15268 8.43263 3.51401 8.0713L9.83801 1.7473ZM2.93334 13.8806L4.82734 13.2486C5.35468 13.0726 5.57868 12.9973 5.78734 12.898C6.04157 12.7762 6.28001 12.6289 6.50268 12.456C6.68468 12.3133 6.85268 12.1473 7.24601 11.754L12.2927 6.7073C11.6008 6.46211 10.9727 6.0648 10.4547 5.54463C9.93499 5.02652 9.53814 4.39844 9.29334 3.70663L4.24668 8.7533C3.85334 9.14597 3.68668 9.3133 3.54468 9.49597C3.37134 9.71819 3.22401 9.95663 3.10268 10.2113C3.00334 10.42 2.92801 10.644 2.75201 11.1713L2.12001 13.0666L2.93334 13.8806ZM10.1033 2.8953C10.1267 3.01197 10.1647 3.17063 10.2293 3.3553C10.4244 3.91333 10.7435 4.41983 11.1627 4.83663C11.5793 5.25573 12.0856 5.57484 12.6433 5.76997C12.8287 5.83463 12.9873 5.87263 13.104 5.89597L13.5453 5.45463C13.9409 5.05633 14.1624 4.5175 14.1614 3.95617C14.1604 3.39485 13.937 2.85679 13.5401 2.45987C13.1432 2.06296 12.6051 1.83953 12.0438 1.83855C11.4825 1.83757 10.9436 2.05911 10.5453 2.45463L10.1033 2.8953Z" fill="black"/>
</g>
<defs>
<clipPath id="clip0_24_168">
<rect width="16" height="16" fill="white"/>
</clipPath>
</defs>
</svg>
