<svg width="22" height="23" viewBox="0 0 22 23" fill="none" xmlns="http://www.w3.org/2000/svg">
<path d="M7 5L10 5.5L13.5 3.5L19.5 4L20 13.5L11.5 21H7L3 19.5L1.5 14L2.5 10.5L7 5Z" fill="#F5BD58"/>
<path d="M6.03 4.45L2.5 8C-0.83 11.31 -0.83 16.69 2.5 20C5.83 23.31 11.19 23.33 14.5 20L20.5 14C21.5 13.03 21.5 11.44 20.5 10.46C20.4 10.34 20.27 10.23 20.13 10.14L20.5 9.75C21.5 8.78 21.5 7.19 20.5 6.21C20.36 6.05 20.17 5.91 20 5.8C20.38 4.88 20.21 3.78 19.46 3.03C18.59 2.16 17.24 2.07 16.26 2.75C16.0565 2.43658 15.7858 2.1724 15.4675 1.97663C15.1492 1.78087 14.7913 1.65844 14.4198 1.61822C14.0483 1.57801 13.6725 1.62102 13.3196 1.74414C12.9668 1.86725 12.6458 2.06738 12.38 2.33L9.87 4.84C9.78 4.7 9.67 4.57 9.55 4.45C9.07808 3.99301 8.44692 3.7375 7.79 3.7375C7.13308 3.7375 6.50192 3.99301 6.03 4.45ZM7.44 5.87C7.64 5.67 7.95 5.67 8.15 5.87C8.35 6.07 8.35 6.38 8.15 6.58L4.97 9.76C5.5318 10.3225 5.84736 11.085 5.84736 11.88C5.84736 12.675 5.5318 13.4375 4.97 14L6.38 15.41C7.06732 14.722 7.5393 13.8487 7.7382 12.8968C7.93711 11.9449 7.85434 10.9556 7.5 10.05L13.8 3.75C14 3.55 14.31 3.55 14.5 3.75C14.69 3.95 14.71 4.26 14.5 4.46L9.91 9.06L11.32 10.47L17.33 4.46C17.53 4.26 17.84 4.26 18.04 4.46C18.24 4.66 18.24 4.97 18.04 5.17L12.03 11.18L13.44 12.59L18.39 7.64C18.59 7.44 18.9 7.44 19.1 7.64C19.3 7.84 19.3 8.15 19.1 8.35L13.44 14L14.85 15.42L18.39 11.88C18.59 11.68 18.9 11.68 19.1 11.88C19.3 12.08 19.3 12.39 19.1 12.59L13.1 18.6C10.56 21.14 6.45 21.14 3.91 18.6C1.37 16.06 1.37 11.95 3.91 9.41L7.44 5.87ZM22 16.5C22 19.81 19.31 22.5 16 22.5V21C18.5 21 20.5 19 20.5 16.5H22ZM0 6.5C0 3.19 2.69 0.5 6 0.5V2C3.5 2 1.5 4 1.5 6.5H0Z" fill="black"/>
</svg>
