<svg width="25" height="24" viewBox="0 0 25 24" fill="none" xmlns="http://www.w3.org/2000/svg">
<g clip-path="url(#clip0_20_231)">
<circle cx="12.5" cy="11.5" r="4.5" fill="#F5BD58"/>
<mask id="mask0_20_231" style="mask-type:luminance" maskUnits="userSpaceOnUse" x="0" y="0" width="25" height="24">
<path d="M0.5 0H24.5V24H0.5V0Z" fill="white"/>
</mask>
<g mask="url(#mask0_20_231)">
<path d="M13.9999 9.74998H10.9999V12M10.9999 12H13.3999H10.9999ZM10.9999 12V14.25H13.9999M5.7499 15V8.99998V15ZM8.7499 8.99998V15V8.99998ZM6.4999 8.99998C6.4999 9.74998 7.9999 14.25 7.9999 15L6.4999 8.99998ZM15.4999 8.99998V14.25V8.99998ZM15.4999 14.25V15V14.25ZM15.4999 14.25C15.4999 12.8625 16.4794 11.484 17.2294 11.484C17.9794 11.484 19.2499 12.8625 19.2499 14.25M19.2499 8.99998V14.25V8.99998ZM19.2499 14.25V15V14.25ZM12.4999 1.49998L15.3544 3.21148L18.6709 3.50548L19.9759 6.56849L22.4854 8.75548L21.7399 12L22.4854 15.2445L19.9744 17.4315L18.6709 20.4945L15.3559 20.787L12.4999 22.5L9.6439 20.787L6.3289 20.4945L5.0239 17.4315L2.5144 15.2445L3.2599 12L2.5144 8.75548L5.0239 6.56849L6.3289 3.50548L9.6439 3.21148L12.4999 1.49998Z" fill="#F5BD58"/>
<path d="M13.9999 9.74998H10.9999V12M10.9999 12H13.3999M10.9999 12V14.25H13.9999M5.7499 15V8.99998M8.7499 8.99998V15M6.4999 8.99998C6.4999 9.74998 7.9999 14.25 7.9999 15M15.4999 8.99998V14.25M15.4999 14.25V15M15.4999 14.25C15.4999 12.8625 16.4794 11.484 17.2294 11.484C17.9794 11.484 19.2499 12.8625 19.2499 14.25M19.2499 14.25V8.99998M19.2499 14.25V15M12.4999 1.49998L15.3544 3.21148L18.6709 3.50548L19.9759 6.56849L22.4854 8.75548L21.7399 12L22.4854 15.2445L19.9744 17.4315L18.6709 20.4945L15.3559 20.787L12.4999 22.5L9.6439 20.787L6.3289 20.4945L5.0239 17.4315L2.5144 15.2445L3.2599 12L2.5144 8.75548L5.0239 6.56849L6.3289 3.50548L9.6439 3.21148L12.4999 1.49998Z" stroke="black" stroke-width="1.5"/>
</g>
</g>
<defs>
<clipPath id="clip0_20_231">
<rect width="24" height="24" fill="white" transform="translate(0.5)"/>
</clipPath>
</defs>
</svg>
