<svg width="24" height="24" viewBox="0 0 24 24" fill="none" xmlns="http://www.w3.org/2000/svg">
<path fill-rule="evenodd" clip-rule="evenodd" d="M17 4.99994V3.99994C17 3.46951 16.7893 2.9608 16.4142 2.58573C16.0391 2.21065 15.5304 1.99994 15 1.99994H9C8.46957 1.99994 7.96086 2.21065 7.58579 2.58573C7.21071 2.9608 7 3.46951 7 3.99994V4.99994H4C3.73478 4.99994 3.48043 5.1053 3.29289 5.29283C3.10536 5.48037 3 5.73472 3 5.99994C3 6.26516 3.10536 6.51951 3.29289 6.70705C3.48043 6.89458 3.73478 6.99994 4 6.99994H5V17.9999C5 18.7956 5.31607 19.5587 5.87868 20.1213C6.44129 20.6839 7.20435 20.9999 8 20.9999H16C16.7956 20.9999 17.5587 20.6839 18.1213 20.1213C18.6839 19.5587 19 18.7956 19 17.9999V6.99994H20C20.2652 6.99994 20.5196 6.89458 20.7071 6.70705C20.8946 6.51951 21 6.26516 21 5.99994C21 5.73472 20.8946 5.48037 20.7071 5.29283C20.5196 5.1053 20.2652 4.99994 20 4.99994H17ZM15 3.99994H9V4.99994H15V3.99994ZM17 6.99994H7V17.9999C7 18.2652 7.10536 18.5195 7.29289 18.707C7.48043 18.8946 7.73478 18.9999 8 18.9999H16C16.2652 18.9999 16.5196 18.8946 16.7071 18.707C16.8946 18.5195 17 18.2652 17 17.9999V6.99994Z" fill="black"/>
<path d="M9 9H11V17H9V9ZM13 9H15V17H13V9Z" fill="black"/>
</svg>
