<svg width="50" height="50" viewBox="0 0 50 50" fill="none" xmlns="http://www.w3.org/2000/svg">
<rect width="50" height="50" rx="25" fill="#D7798C"/>
<path d="M37.1634 20.9434H12.8368C12.3445 20.9439 11.8586 21.0557 11.4156 21.2705C10.9726 21.4852 10.5839 21.7973 10.2784 22.1834C9.97428 22.5684 9.76174 23.0176 9.65692 23.4969C9.5521 23.9763 9.55775 24.4732 9.67344 24.95L12.2818 35.63C12.6594 37.0061 13.4794 38.2196 14.6151 39.0834C15.7518 39.9484 17.1434 40.4167 18.5751 40.4167H31.4218C32.8534 40.4167 34.2451 39.9484 35.3818 39.0834C36.5175 38.2196 37.3375 37.0061 37.7151 35.63L40.3234 24.9517C40.499 24.2318 40.422 23.4734 40.1052 22.8035C39.7885 22.1336 39.2512 21.5928 38.5834 21.2717C38.1391 21.0584 37.653 20.9462 37.1601 20.9434M18.4784 27.4334V33.925M25.0001 27.4334V33.925M31.5218 27.4334V33.925M36.4134 20.9434C36.4129 19.4501 36.1172 17.9717 35.5434 16.5931C34.9697 15.2144 34.1291 13.9628 33.0701 12.91C30.9259 10.7775 28.0242 9.58138 25.0001 9.58338C21.976 9.58138 19.0743 10.7775 16.9301 12.91C15.8714 13.9629 15.0311 15.2146 14.4577 16.5933C13.8842 17.9719 13.5888 19.4502 13.5884 20.9434" stroke="white" stroke-width="2.87" stroke-linecap="round" stroke-linejoin="round"/>
</svg>
